<svg width="60" height="60" viewBox="0 0 60 60" fill="none" xmlns="http://www.w3.org/2000/svg">
<path d="M39.275 31.775C39.5026 31.5373 39.681 31.2569 39.8 30.95C40.0501 30.3414 40.0501 29.6587 39.8 29.05C39.681 28.7431 39.5026 28.4628 39.275 28.225L31.775 20.725C31.3043 20.2543 30.6658 19.9898 30 19.9898C29.3343 19.9898 28.6958 20.2543 28.225 20.725C27.7543 21.1958 27.4898 21.8343 27.4898 22.5C27.4898 23.1658 27.7543 23.8043 28.225 24.275L31.475 27.5H22.5C21.837 27.5 21.2011 27.7634 20.7322 28.2322C20.2634 28.7011 20 29.337 20 30C20 30.6631 20.2634 31.2989 20.7322 31.7678C21.2011 32.2366 21.837 32.5 22.5 32.5H31.475L28.225 35.725C27.9907 35.9574 27.8047 36.2339 27.6778 36.5386C27.5509 36.8432 27.4855 37.17 27.4855 37.5C27.4855 37.83 27.5509 38.1568 27.6778 38.4615C27.8047 38.7661 27.9907 39.0426 28.225 39.275C28.4574 39.5093 28.7339 39.6953 29.0386 39.8222C29.3432 39.9492 29.67 40.0145 30 40.0145C30.33 40.0145 30.6568 39.9492 30.9615 39.8222C31.2661 39.6953 31.5426 39.5093 31.775 39.275L39.275 31.775ZM55 30C55 25.0555 53.5338 20.222 50.7867 16.1108C48.0397 11.9995 44.1353 8.79521 39.5671 6.90302C34.9989 5.01083 29.9723 4.51575 25.1228 5.48038C20.2732 6.44501 15.8187 8.82603 12.3223 12.3223C8.82603 15.8187 6.44501 20.2732 5.48038 25.1228C4.51575 29.9723 5.01083 34.9989 6.90302 39.5671C8.79521 44.1353 11.9995 48.0397 16.1108 50.7867C20.222 53.5338 25.0555 55 30 55C36.6304 55 42.9893 52.3661 47.6777 47.6777C52.3661 42.9893 55 36.6304 55 30ZM10 30C10 26.0444 11.173 22.1776 13.3706 18.8886C15.5682 15.5996 18.6918 13.0362 22.3463 11.5224C26.0009 10.0087 30.0222 9.6126 33.9018 10.3843C37.7814 11.156 41.3451 13.0608 44.1421 15.8579C46.9392 18.6549 48.844 22.2186 49.6157 26.0982C50.3874 29.9778 49.9914 33.9992 48.4776 37.6537C46.9638 41.3082 44.4004 44.4318 41.1114 46.6294C37.8224 48.827 33.9556 50 30 50C24.6957 50 19.6086 47.8929 15.8579 44.1421C12.1071 40.3914 10 35.3043 10 30Z" fill="white"/>
</svg>
