<svg width="35" height="29" viewBox="0 0 35 29" fill="none" xmlns="http://www.w3.org/2000/svg">
<path d="M34.9919 10.0495C35.0706 7.41097 34.5729 4.79221 33.5451 2.43635C32.8478 1.46969 31.88 0.817338 30.8105 0.592982C26.3866 0.127577 21.9444 -0.0631771 17.503 0.0215366C13.0777 -0.067022 8.65151 0.117577 4.24317 0.574548C3.37161 0.758363 2.56505 1.23234 1.9219 1.93864C0.490988 3.46864 0.331998 6.08623 0.173007 8.29827C-0.057669 12.2755 -0.057669 16.2661 0.173007 20.2433C0.219003 21.4883 0.37889 22.7242 0.649979 23.9301C0.841682 24.8611 1.22954 25.7225 1.77881 26.437C2.42633 27.1808 3.25168 27.6817 4.14777 27.8749C7.57547 28.3654 11.0292 28.5687 14.4822 28.4832C20.0468 28.5753 24.9278 28.4832 30.6992 27.967C31.6173 27.7857 32.4659 27.2842 33.1318 26.5292C33.5769 26.0129 33.9093 25.381 34.1016 24.6858C34.6702 22.663 34.9495 20.5458 34.9283 18.4184C34.9919 17.3861 34.9919 11.1555 34.9919 10.0495ZM13.9098 19.5244V8.11394L23.322 13.8468C20.6828 15.5427 17.2009 17.4598 13.9098 19.5244Z" fill="black"/>
</svg>
